<svg width="273.01" height="167.72" viewBox="0 0 273.01 167.72" xmlns="http://www.w3.org/2000/svg" xmlns:xlink="http://www.w3.org/1999/xlink" overflow="hidden"><defs></defs><g><g><path d="M248 117.22C240.17 54.53 180.79 10.82 118.61 21.4 61.77 31.07 21.43 82.62 25.73 140.08 27.21 159.9 36.3 169.16 55.94 167.54 75.39 165.94 94.65 162.06 115.41 158.96 96.53 150.25 84.71 137.23 79.69 118.25 89.74 129.42 101.71 136.87 116.68 139.11 131.94 141.4 145.78 137.94 158.27 129.07 167.76 122.33 174.53 113.4 178.44 102.4 184.07 86.55 182.64 71.08 175.03 55.5 204.79 75.1 211.23 134.85 160.95 158.87 168.36 160.11 175.15 161.39 181.98 162.35 195.63 164.27 209.26 166.85 222.99 167.59 236.52 168.31 245.15 161.24 247.16 147.97 248.69 137.89 249.26 127.3 248 117.22ZM43.03 142.38 42.26 141.98 41.48 142.38 41.63 141.52 41 140.91 41.87 140.78 42.26 140 42.64 140.78 43.51 140.91 42.88 141.52 43.03 142.38ZM50.06 93.77 48.51 92.95 46.96 93.77 47.26 92.04 46 90.82 47.74 90.57 48.51 89 49.28 90.57 51.02 90.82 49.76 92.04 50.06 93.77ZM59.74 125.57 60.51 124 61.28 125.57 63.02 125.82 61.76 127.04 62.06 128.77 60.51 127.95 58.96 128.77 59.26 127.04 58 125.82 59.74 125.57ZM65.87 149.29 63.21 147.89 60.55 149.29 61.06 146.33 58.91 144.23 61.88 143.8 63.21 141.11 64.54 143.8 67.51 144.23 65.36 146.33 65.87 149.29ZM68.03 102.38 67.26 101.98 66.48 102.38 66.63 101.52 66 100.91 66.87 100.78 67.26 100 67.64 100.78 68.51 100.91 67.88 101.52 68.03 102.38ZM80.13 61 78.51 60.15 76.89 61 77.2 59.19 75.88 57.91 77.7 57.65 78.51 56 79.32 57.65 81.14 57.91 79.82 59.19 80.13 61ZM106.78 42 104.51 40.8 102.24 42 102.67 39.47 100.83 37.67 103.37 37.3 104.51 35 105.65 37.3 108.19 37.67 106.35 39.47 106.78 42ZM137.97 37.77 134.51 35.95 131.05 37.77 131.71 33.91 128.91 31.18 132.78 30.62 134.51 27.11 136.24 30.62 140.11 31.18 137.31 33.91 137.97 37.77ZM165.13 41 163.51 40.15 161.89 41 162.2 39.19 160.88 37.91 162.7 37.65 163.51 36 164.32 37.65 166.14 37.91 164.82 39.19 165.13 41ZM217.13 131 215.51 130.15 213.89 131 214.2 129.19 212.88 127.91 214.7 127.65 215.51 126 216.32 127.65 218.14 127.91 216.82 129.19 217.13 131ZM223.74 94.33 224.16 96.77 221.97 95.62 219.78 96.77 220.2 94.33 218.43 92.6 220.87 92.25 221.97 90.03 223.06 92.25 225.51 92.6 223.74 94.33ZM234.06 149.77 232.51 148.95 230.96 149.77 231.26 148.04 230 146.82 231.74 146.57 232.51 145 233.28 146.57 235.02 146.82 233.76 148.04 234.06 149.77ZM233.71 112.68 230.74 114.24 231.31 110.94 228.91 108.6 232.22 108.11 233.71 105.11 235.19 108.11 238.51 108.6 236.11 110.94 236.68 114.24 233.71 112.68ZM240.63 136.56 240.84 137.77 239.76 137.2 238.67 137.77 238.88 136.56 238 135.71 239.21 135.53 239.76 134.43 240.3 135.53 241.51 135.71 240.63 136.56Z" fill="#FFFFFF"/><path d="M11.51 114 12.28 115.57 14.01 115.82 12.76 117.04 13.06 118.77 11.51 117.95 9.96 118.77 10.25 117.04 9 115.82 10.73 115.57Z" fill="#FFFFFF"/><path d="M26.25 75 26.64 75.78 27.51 75.91 26.88 76.52 27.03 77.38 26.25 76.98 25.48 77.38 25.63 76.52 25 75.91 25.87 75.78Z" fill="#FFFFFF"/><path d="M38.03 30 38.97 31.9 41.06 32.2 39.55 33.68 39.91 35.77 38.03 34.78 36.16 35.77 36.52 33.68 35 32.2 37.1 31.9Z" fill="#FFFFFF"/><path d="M51.25 33 51.95 34.41 53.51 34.64 52.38 35.74 52.65 37.29 51.25 36.55 49.86 37.29 50.13 35.74 49 34.64 50.56 34.41Z" fill="#FFFFFF"/><path d="M46.51 42 47.28 43.57 49.01 43.82 47.76 45.04 48.06 46.77 46.51 45.95 44.96 46.77 45.25 45.04 44 43.82 45.73 43.57Z" fill="#FFFFFF"/><path d="M107.25 7 107.95 8.41 109.51 8.64 108.38 9.74 108.65 11.29 107.25 10.55 105.86 11.29 106.13 9.74 105 8.64 106.56 8.41Z" fill="#FFFFFF"/><path d="M263.25 143 263.95 144.41 265.51 144.64 264.38 145.74 264.65 147.29 263.25 146.55 261.86 147.29 262.13 145.74 261 144.64 262.56 144.41Z" fill="#FFFFFF"/><path d="M100.51 17 101.28 18.57 103.01 18.82 101.76 20.04 102.06 21.77 100.51 20.95 98.96 21.77 99.25 20.04 98 18.82 99.73 18.57Z" fill="#FFFFFF"/><path d="M200.58 6 201.06 6.99 202.15 7.15 201.37 7.91 201.55 9 200.58 8.49 199.6 9 199.79 7.91 199 7.15 200.09 6.99Z" fill="#FFFFFF"/><path d="M209.25 17 209.64 17.78 210.51 17.91 209.88 18.52 210.03 19.38 209.25 18.98 208.48 19.38 208.63 18.52 208 17.91 208.87 17.78Z" fill="#FFFFFF"/><path d="M269.25 79 269.64 79.78 270.51 79.91 269.88 80.52 270.03 81.38 269.25 80.98 268.48 81.38 268.63 80.52 268 79.91 268.87 79.78Z" fill="#FFFFFF"/><path d="M258.25 90 258.64 90.78 259.51 90.91 258.88 91.52 259.03 92.38 258.25 91.98 257.48 92.38 257.63 91.52 257 90.91 257.87 90.78Z" fill="#FFFFFF"/><path d="M16.25 135 16.64 135.78 17.51 135.91 16.88 136.52 17.03 137.38 16.25 136.98 15.48 137.38 15.63 136.52 15 135.91 15.87 135.78Z" fill="#FFFFFF"/><path d="M1.25 144 1.64 144.78 2.51 144.91 1.88 145.52 2.03 146.38 1.25 145.98 0.48 146.38 0.63 145.52 0 144.91 0.87 144.78Z" fill="#FFFFFF"/><path d="M81.25 13 81.64 13.78 82.51 13.91 81.88 14.52 82.03 15.38 81.25 14.98 80.48 15.38 80.63 14.52 80 13.91 80.87 13.78Z" fill="#FFFFFF"/><path d="M257.25 78 257.64 78.78 258.51 78.91 257.88 79.52 258.03 80.38 257.25 79.98 256.48 80.38 256.63 79.52 256 78.91 256.87 78.78Z" fill="#FFFFFF"/><path d="M245.25 67 245.64 67.78 246.51 67.91 245.88 68.52 246.03 69.38 245.25 68.98 244.48 69.38 244.63 68.52 244 67.91 244.87 67.78Z" fill="#FFFFFF"/><path d="M220.51 38 221.28 39.57 223.01 39.82 221.76 41.04 222.06 42.77 220.51 41.95 218.96 42.77 219.25 41.04 218 39.82 219.73 39.57Z" fill="#FFFFFF"/><path d="M270.51 126 271.28 127.57 273.01 127.82 271.76 129.04 272.06 130.77 270.51 129.95 268.96 130.77 269.25 129.04 268 127.82 269.73 127.57Z" fill="#FFFFFF"/><path d="M192.44 17 192.92 17.99 194.01 18.15 193.22 18.91 193.41 20 192.44 19.49 191.46 20 191.65 18.91 190.86 18.15 191.95 17.99Z" fill="#FFFFFF"/><path d="M202.25 28.48 202.95 29.89 204.51 30.12 203.38 31.22 203.65 32.77 202.25 32.04 200.86 32.77 201.13 31.22 200 30.12 201.56 29.89Z" fill="#FFFFFF"/><path d="M90.26 0 90.79 1.07 91.96 1.24 91.11 2.07 91.31 3.24 90.26 2.68 89.21 3.24 89.41 2.07 88.56 1.24 89.73 1.07Z" fill="#FFFFFF"/><path d="M33.25 51 33.95 52.41 35.51 52.64 34.38 53.74 34.65 55.29 33.25 54.55 31.86 55.29 32.13 53.74 31 52.64 32.56 52.41Z" fill="#FFFFFF"/><path d="M258.7 61.11 260.19 64.11 263.51 64.6 261.11 66.94 261.67 70.24 258.7 68.68 255.74 70.24 256.3 66.94 253.9 64.6 257.22 64.11Z" fill="#FFFFFF"/></g></g></svg>